<svg width="80" height="80" viewBox="0 0 80 80" fill="none" xmlns="http://www.w3.org/2000/svg">
<rect x="0.5" y="0.5" width="79" height="79" rx="9.5" fill="white" stroke="#E9E9E9"/>
<path fill-rule="evenodd" clip-rule="evenodd" d="M38.376 54.7009V37.3508C38.376 35.7013 39.7179 34.3594 41.3674 34.3594H46.2393V30.0855H40.086C39.378 30.0855 38.804 29.5115 38.804 28.8034V22.5641H22.9924C22.7562 22.5641 22.5641 22.7546 22.5641 22.9888V54.2523C22.5641 54.4913 22.7643 54.7009 22.9924 54.7009H38.376ZM57.0085 34.3594H48.8034V28.8432C48.8038 28.83 48.804 28.8167 48.804 28.8034V28.7465C48.804 28.4068 48.6693 28.0812 48.4293 27.8408L41.1004 20.4979C40.8659 20.195 40.4988 20 40.086 20H40.0855H40.0717H22.9924C21.3424 20 20 21.3408 20 22.9888V54.2523C20 55.9135 21.3424 57.265 22.9924 57.265H38.3868C38.5171 58.7951 39.8042 60.0004 41.3674 60.0004H57.0085C58.6579 60.0004 59.9999 58.6584 59.9999 57.0089V37.3508C59.9999 35.7013 58.6579 34.3594 57.0085 34.3594ZM41.3681 27.5214H44.4877L41.3681 24.3958V27.5214ZM27.6243 28.7349C26.7739 28.3831 26.6304 28.2095 26.6304 27.9538C26.6304 27.656 26.8812 27.4782 27.3015 27.4782C27.8365 27.4782 28.294 27.7277 28.7447 27.9865L29.2712 26.6172C29.2092 26.5877 29.148 26.5579 29.0873 26.5284L29.0873 26.5284L29.0873 26.5284L29.0873 26.5284L29.0872 26.5284L29.0872 26.5284L29.0872 26.5284L29.0872 26.5284L29.0872 26.5284L29.0872 26.5284L29.0872 26.5284L29.0872 26.5284L29.0872 26.5284L29.0872 26.5284L29.0872 26.5284L29.0872 26.5284L29.0871 26.5283L29.0871 26.5283C28.688 26.3345 28.3092 26.1505 27.8641 26.0882V25.0469H26.5821V26.1735C25.6419 26.4408 25.0557 27.1577 25.0557 28.0726C25.0557 29.2462 25.9849 29.7764 26.9081 30.1395C27.6836 30.4542 27.7824 30.7244 27.7824 30.9694C27.7824 31.3305 27.4646 31.5638 26.9793 31.5638C26.3673 31.5638 25.8522 31.2606 25.3587 30.9325L24.8735 32.3212C25.3884 32.6461 25.8129 32.897 26.4966 32.9676V34.0212H27.8641V32.8882C28.8043 32.6092 29.4093 31.8417 29.4093 30.9C29.4093 29.9015 28.846 29.2336 27.6243 28.7349ZM31.5391 29.6602H36.5818V32.2243H31.5391V29.6602ZM36.1545 42.9102H29.4878V45.4743H36.1545V42.9102ZM24.8721 42.9102H27.3507V45.4743H24.8721V42.9102ZM36.1545 37.2656H29.4878V39.8297H36.1545V37.2656ZM24.8721 37.2656H27.3507V39.8297H24.8721V37.2656ZM36.1545 48.5469H29.4878V51.111H36.1545V48.5469ZM24.8721 48.5469H27.3507V51.111H24.8721V48.5469ZM41.3674 36.9235C41.1318 36.9235 40.9401 37.1152 40.9401 37.3508V57.0089C40.9401 57.2446 41.1318 57.4363 41.3674 57.4363H57.0085C57.2441 57.4363 57.4358 57.2446 57.4358 57.0089V37.3508C57.4358 37.1152 57.2441 36.9235 57.0085 36.9235H41.3674ZM44.0169 45.8987H54.3588C55.0668 45.8987 55.6408 45.3247 55.6408 44.6167V40.0867C55.6408 39.3787 55.0668 38.8047 54.3588 38.8047H44.0169C43.3089 38.8047 42.7349 39.3787 42.7349 40.0867V44.6167C42.7349 45.3247 43.3089 45.8987 44.0169 45.8987ZM53.0767 43.3346H45.299V41.3688H53.0767V43.3346ZM45.8971 47.9531H43.5039V50.5172H45.8971V47.9531ZM48.1196 47.9531H50.4273V50.5172H48.1196V47.9531ZM54.8717 47.9531H52.564V50.5172H54.8717V47.9531ZM43.5044 52.5664H45.8976V55.1305H43.5044V52.5664ZM50.4273 52.5664H48.1196V55.1305H50.4273V52.5664ZM52.564 52.5664H54.8717V55.1305H52.564V52.5664Z" fill="#3B3786"/>
</svg>
