<svg width="25" height="25" viewBox="0 0 25 25" fill="none" xmlns="http://www.w3.org/2000/svg">
<path d="M21.214 5.52096C21.214 6.37983 20.5178 7.07609 19.6589 7.07609C18.8 7.07609 18.1038 6.37983 18.1038 5.52096C18.1038 4.66208 18.8 3.96582 19.6589 3.96582C20.5178 3.96582 21.214 4.66208 21.214 5.52096Z" fill="white"/>
<path fill-rule="evenodd" clip-rule="evenodd" d="M12.6604 17.4435C15.3801 17.4435 17.585 15.2387 17.585 12.5189C17.585 9.7991 15.3801 7.59429 12.6604 7.59429C9.94058 7.59429 7.73577 9.7991 7.73577 12.5189C7.73577 15.2387 9.94058 17.4435 12.6604 17.4435ZM12.6604 18.7394C16.0959 18.7394 18.8809 15.9544 18.8809 12.5189C18.8809 9.08337 16.0959 6.29834 12.6604 6.29834C9.22485 6.29834 6.43982 9.08337 6.43982 12.5189C6.43982 15.9544 9.22485 18.7394 12.6604 18.7394Z" fill="white" stroke="white" stroke-width="0.48058"/>
<path fill-rule="evenodd" clip-rule="evenodd" d="M19.9178 2.15142H5.14398C3.56937 2.15142 2.29289 3.42789 2.29289 5.0025V19.7763C2.29289 21.3509 3.56937 22.6274 5.14398 22.6274H19.9178C21.4924 22.6274 22.7688 21.3509 22.7688 19.7763V5.0025C22.7688 3.42789 21.4924 2.15142 19.9178 2.15142ZM5.14398 0.855469C2.85364 0.855469 0.996948 2.71216 0.996948 5.0025V19.7763C0.996948 22.0666 2.85364 23.9233 5.14398 23.9233H19.9178C22.2081 23.9233 24.0648 22.0666 24.0648 19.7763V5.0025C24.0648 2.71216 22.2081 0.855469 19.9178 0.855469H5.14398Z" fill="white" stroke="white" stroke-width="0.48058"/>
</svg>
