<svg width="80" height="80" viewBox="0 0 80 80" fill="none" xmlns="http://www.w3.org/2000/svg">
<rect x="0.5" y="0.5" width="79" height="79" rx="9.5" fill="white" stroke="#E9E9E9"/>
<path d="M58.8235 19.754C52.4724 19.9119 46.1968 18.3366 40.6588 15.1943C40.4319 15.0462 40.1621 14.9796 39.8931 15.0055C39.6241 15.0313 39.3716 15.1481 39.1765 15.3368C39.1765 15.3368 34.4941 19.754 21.1765 19.754C20.8645 19.754 20.5652 19.8791 20.3446 20.1018C20.1239 20.3245 20 20.6265 20 20.9414V49.4394C20.0183 50.4241 20.285 51.388 20.7749 52.2398C21.2648 53.0916 21.9618 53.8033 22.8 54.3078L39.3882 64.757C39.5684 64.8816 39.7816 64.9482 40 64.9482C40.2184 64.9482 40.4316 64.8816 40.6118 64.757L57.0824 54.3078C57.9526 53.8119 58.6794 53.0954 59.1912 52.229C59.7029 51.3627 59.9817 50.3765 60 49.3681V20.9414C60 20.6265 59.8761 20.3245 59.6554 20.1018C59.4348 19.8791 59.1356 19.754 58.8235 19.754ZM57.6471 49.3681C57.628 49.9493 57.4625 50.516 57.1661 51.0147C56.8696 51.5133 56.4521 51.9275 55.9529 52.2179L40 62.2872L24.0471 52.2179C23.5479 51.9275 23.1304 51.5133 22.8339 51.0147C22.5375 50.516 22.372 49.9493 22.3529 49.3681V22.1288C33.1059 21.9151 38.3294 18.9466 40.0941 17.6404C45.505 20.5326 51.5245 22.0719 57.6471 22.1288V49.3681ZM38.8235 30.3695V31.6282C37.5885 31.6696 36.4153 32.1834 35.5415 33.0653C34.6677 33.9472 34.1588 35.1313 34.1176 36.3778C34.1176 37.6375 34.6134 38.8456 35.496 39.7363C36.3785 40.6271 37.5755 41.1275 38.8235 41.1275V45.8771C38.1995 45.8771 37.601 45.6269 37.1597 45.1815C36.7185 44.7362 36.4706 44.1321 36.4706 43.5023C36.4706 43.1874 36.3466 42.8853 36.126 42.6627C35.9054 42.44 35.6061 42.3149 35.2941 42.3149C34.9821 42.3149 34.6829 42.44 34.4622 42.6627C34.2416 42.8853 34.1176 43.1874 34.1176 43.5023C34.1176 44.762 34.6134 45.9701 35.496 46.8608C36.3785 47.7515 37.5755 48.2519 38.8235 48.2519V49.4631C38.8235 49.778 38.9475 50.0801 39.1681 50.3027C39.3887 50.5254 39.688 50.6505 40 50.6505C40.312 50.6505 40.6113 50.5254 40.8319 50.3027C41.0525 50.0801 41.1765 49.778 41.1765 49.4631V48.2519C42.4245 48.2519 43.6215 47.7515 44.504 46.8608C45.3866 45.9701 45.8824 44.762 45.8824 43.5023C45.8824 42.2426 45.3866 41.0345 44.504 40.1438C43.6215 39.253 42.4245 38.7526 41.1765 38.7526V34.003C41.7895 34.0371 42.3685 34.2983 42.8027 34.7365C43.2368 35.1746 43.4956 35.7591 43.5294 36.3778C43.5294 36.6927 43.6534 36.9948 43.874 37.2174C44.0946 37.4401 44.3939 37.5652 44.7059 37.5652C45.0179 37.5652 45.3171 37.4401 45.5378 37.2174C45.7584 36.9948 45.8824 36.6927 45.8824 36.3778C45.8468 35.1295 45.3396 33.9421 44.4647 33.059C43.5897 32.1759 42.4133 31.664 41.1765 31.6282V30.4407C41.1765 30.1258 41.0525 29.8238 40.8319 29.6011C40.6113 29.3784 40.312 29.2533 40 29.2533C39.688 29.2533 39.3887 29.3784 39.1681 29.6011C38.9475 29.8238 38.8235 30.1258 38.8235 30.4407V30.3695ZM36.4706 36.3778C36.5044 35.7591 36.7632 35.1746 37.1973 34.7365C37.6315 34.2983 38.2105 34.0371 38.8235 34.003V38.7526C38.1995 38.7526 37.601 38.5024 37.1597 38.0571C36.7185 37.6117 36.4706 37.0077 36.4706 36.3778ZM43.5294 43.5023C43.5294 44.1321 43.2815 44.7362 42.8403 45.1815C42.399 45.6269 41.8005 45.8771 41.1765 45.8771V41.1275C41.8005 41.1275 42.399 41.3777 42.8403 41.823C43.2815 42.2684 43.5294 42.8724 43.5294 43.5023Z" fill="#3B3786"/>
</svg>
