<svg width="80" height="80" viewBox="0 0 80 80" fill="none" xmlns="http://www.w3.org/2000/svg">
<rect x="0.5" y="0.5" width="79" height="79" rx="9.5" fill="white" stroke="#E9E9E9"/>
<mask id="path-2-outside-1" maskUnits="userSpaceOnUse" x="19" y="17" width="42" height="47" fill="black">
<rect fill="white" x="19" y="17" width="42" height="47"/>
<path d="M48.1481 44.9139C48.1481 45.1121 48.0701 45.3023 47.9312 45.4425C47.7923 45.5827 47.6039 45.6615 47.4074 45.6615H37.7778C37.5813 45.6615 37.3929 45.5827 37.254 45.4425C37.1151 45.3023 37.037 45.1121 37.037 44.9139C37.037 44.7156 37.1151 44.5254 37.254 44.3852C37.3929 44.245 37.5813 44.1663 37.7778 44.1663H47.4074C47.6039 44.1663 47.7923 44.245 47.9312 44.3852C48.0701 44.5254 48.1481 44.7156 48.1481 44.9139ZM47.4074 50.1471H37.7778C37.5813 50.1471 37.3929 50.2259 37.254 50.3661C37.1151 50.5063 37.037 50.6964 37.037 50.8947C37.037 51.093 37.1151 51.2832 37.254 51.4234C37.3929 51.5636 37.5813 51.6423 37.7778 51.6423H47.4074C47.6039 51.6423 47.7923 51.5636 47.9312 51.4234C48.0701 51.2832 48.1481 51.093 48.1481 50.8947C48.1481 50.6964 48.0701 50.5063 47.9312 50.3661C47.7923 50.2259 47.6039 50.1471 47.4074 50.1471ZM47.4074 38.1854H37.7778C37.5813 38.1854 37.3929 38.2642 37.254 38.4044C37.1151 38.5446 37.037 38.7347 37.037 38.933C37.037 39.1313 37.1151 39.3214 37.254 39.4616C37.3929 39.6019 37.5813 39.6806 37.7778 39.6806H47.4074C47.6039 39.6806 47.7923 39.6019 47.9312 39.4616C48.0701 39.3214 48.1481 39.1313 48.1481 38.933C48.1481 38.7347 48.0701 38.5446 47.9312 38.4044C47.7923 38.2642 47.6039 38.1854 47.4074 38.1854ZM60 28.4665V50.1471C60 50.3454 59.922 50.5356 59.783 50.6758C59.6441 50.816 59.4557 50.8947 59.2593 50.8947H52.5926V56.128C52.5926 57.9125 51.8902 59.6239 50.64 60.8857C49.3897 62.1476 47.694 62.8564 45.9259 62.8564H26.6667C24.8986 62.8564 23.2029 62.1476 21.9526 60.8857C20.7024 59.6239 20 57.9125 20 56.128C20 55.9297 20.078 55.7395 20.217 55.5993C20.3559 55.4591 20.5443 55.3804 20.7407 55.3804H25.9259V24.7285C25.9259 24.5302 26.004 24.34 26.1429 24.1998C26.2818 24.0596 26.4702 23.9809 26.6667 23.9809H33.3333V18.7476C33.3333 18.5493 33.4114 18.3592 33.5503 18.219C33.6892 18.0788 33.8776 18 34.0741 18H49.6296C49.8132 18.0005 49.9901 18.0698 50.1259 18.1944L59.7556 27.9133C59.8146 27.9767 59.8622 28.0501 59.8963 28.1301V28.1974C59.9171 28.2602 59.9296 28.3256 59.9333 28.3917L60 28.4665ZM50.3704 27.7189H57.4741L50.3704 20.5493V27.7189ZM41.7481 61.3612C40.3768 60.2508 39.4956 58.6386 39.2963 56.8756H21.5185C21.697 58.1239 22.3162 59.2651 23.2621 60.0893C24.208 60.9135 25.417 61.3652 26.6667 61.3612H41.7481ZM51.1111 35.195H42.2222C42.0258 35.195 41.8374 35.1162 41.6984 34.976C41.5595 34.8358 41.4815 34.6456 41.4815 34.4474V25.4761H27.4074V55.3804H40C40.1965 55.3804 40.3849 55.4591 40.5238 55.5993C40.6627 55.7395 40.7407 55.9297 40.7407 56.128C40.7407 57.5159 41.287 58.847 42.2594 59.8284C43.2319 60.8099 44.5507 61.3612 45.9259 61.3612C47.3011 61.3612 48.62 60.8099 49.5924 59.8284C50.5648 58.847 51.1111 57.5159 51.1111 56.128V35.195ZM50.0667 33.6998L42.963 26.5302V33.6998H50.0667ZM58.5185 49.3995V29.2141H49.6296C49.4332 29.2141 49.2448 29.1353 49.1058 28.9951C48.9669 28.8549 48.8889 28.6648 48.8889 28.4665V19.4952H34.8148V23.9809H42.2222C42.4058 23.9813 42.5827 24.0506 42.7185 24.1752L52.3481 33.8941C52.4072 33.9576 52.4548 34.031 52.4889 34.1109V34.1782C52.5097 34.2411 52.5222 34.3064 52.5259 34.3726C52.5259 34.3726 52.5259 34.3726 52.5259 34.4175V49.3995H58.5185ZM34.2889 36.907L31.8519 39.3741L30.8963 38.4097C30.7546 38.2872 30.5723 38.2232 30.3859 38.2305C30.1995 38.2377 30.0226 38.3157 29.8907 38.4489C29.7588 38.582 29.6815 38.7605 29.6743 38.9487C29.6671 39.1368 29.7305 39.3208 29.8519 39.4638L31.3333 40.959C31.4721 41.0983 31.6599 41.1764 31.8556 41.1764C32.0512 41.1764 32.239 41.0983 32.3778 40.959L35.3407 37.9686C35.4621 37.8256 35.5255 37.6416 35.5183 37.4535C35.5111 37.2653 35.4338 37.0868 35.3019 36.9537C35.17 36.8205 34.9931 36.7425 34.8067 36.7353C34.6203 36.728 34.438 36.792 34.2963 36.9145L34.2889 36.907ZM34.2889 42.8879L31.8519 45.355L30.8963 44.3905C30.7546 44.2681 30.5723 44.2041 30.3859 44.2113C30.1995 44.2186 30.0226 44.2966 29.8907 44.4297C29.7588 44.5629 29.6815 44.7414 29.6743 44.9295C29.6671 45.1177 29.7305 45.3016 29.8519 45.4447L31.3333 46.9399C31.4721 47.0791 31.6599 47.1573 31.8556 47.1573C32.0512 47.1573 32.239 47.0791 32.3778 46.9399L35.3407 43.9495C35.4621 43.8064 35.5255 43.6225 35.5183 43.4343C35.5111 43.2462 35.4338 43.0677 35.3019 42.9345C35.17 42.8014 34.9931 42.7234 34.8067 42.7161C34.6203 42.7088 34.438 42.7729 34.2963 42.8953L34.2889 42.8879ZM34.2889 48.8687L31.8519 51.3358L30.8963 50.3714C30.7546 50.2489 30.5723 50.1849 30.3859 50.1922C30.1995 50.1995 30.0226 50.2775 29.8907 50.4106C29.7588 50.5438 29.6815 50.7222 29.6743 50.9104C29.6671 51.0985 29.7305 51.2825 29.8519 51.4255L31.3333 52.9207C31.4721 53.06 31.6599 53.1381 31.8556 53.1381C32.0512 53.1381 32.239 53.06 32.3778 52.9207L35.3407 49.9303C35.4621 49.7873 35.5255 49.6033 35.5183 49.4152C35.5111 49.227 35.4338 49.0485 35.3019 48.9154C35.17 48.7822 34.9931 48.7042 34.8067 48.697C34.6203 48.6897 34.438 48.7537 34.2963 48.8762L34.2889 48.8687Z"/>
</mask>
<path d="M48.1481 44.9139C48.1481 45.1121 48.0701 45.3023 47.9312 45.4425C47.7923 45.5827 47.6039 45.6615 47.4074 45.6615H37.7778C37.5813 45.6615 37.3929 45.5827 37.254 45.4425C37.1151 45.3023 37.037 45.1121 37.037 44.9139C37.037 44.7156 37.1151 44.5254 37.254 44.3852C37.3929 44.245 37.5813 44.1663 37.7778 44.1663H47.4074C47.6039 44.1663 47.7923 44.245 47.9312 44.3852C48.0701 44.5254 48.1481 44.7156 48.1481 44.9139ZM47.4074 50.1471H37.7778C37.5813 50.1471 37.3929 50.2259 37.254 50.3661C37.1151 50.5063 37.037 50.6964 37.037 50.8947C37.037 51.093 37.1151 51.2832 37.254 51.4234C37.3929 51.5636 37.5813 51.6423 37.7778 51.6423H47.4074C47.6039 51.6423 47.7923 51.5636 47.9312 51.4234C48.0701 51.2832 48.1481 51.093 48.1481 50.8947C48.1481 50.6964 48.0701 50.5063 47.9312 50.3661C47.7923 50.2259 47.6039 50.1471 47.4074 50.1471ZM47.4074 38.1854H37.7778C37.5813 38.1854 37.3929 38.2642 37.254 38.4044C37.1151 38.5446 37.037 38.7347 37.037 38.933C37.037 39.1313 37.1151 39.3214 37.254 39.4616C37.3929 39.6019 37.5813 39.6806 37.7778 39.6806H47.4074C47.6039 39.6806 47.7923 39.6019 47.9312 39.4616C48.0701 39.3214 48.1481 39.1313 48.1481 38.933C48.1481 38.7347 48.0701 38.5446 47.9312 38.4044C47.7923 38.2642 47.6039 38.1854 47.4074 38.1854ZM60 28.4665V50.1471C60 50.3454 59.922 50.5356 59.783 50.6758C59.6441 50.816 59.4557 50.8947 59.2593 50.8947H52.5926V56.128C52.5926 57.9125 51.8902 59.6239 50.64 60.8857C49.3897 62.1476 47.694 62.8564 45.9259 62.8564H26.6667C24.8986 62.8564 23.2029 62.1476 21.9526 60.8857C20.7024 59.6239 20 57.9125 20 56.128C20 55.9297 20.078 55.7395 20.217 55.5993C20.3559 55.4591 20.5443 55.3804 20.7407 55.3804H25.9259V24.7285C25.9259 24.5302 26.004 24.34 26.1429 24.1998C26.2818 24.0596 26.4702 23.9809 26.6667 23.9809H33.3333V18.7476C33.3333 18.5493 33.4114 18.3592 33.5503 18.219C33.6892 18.0788 33.8776 18 34.0741 18H49.6296C49.8132 18.0005 49.9901 18.0698 50.1259 18.1944L59.7556 27.9133C59.8146 27.9767 59.8622 28.0501 59.8963 28.1301V28.1974C59.9171 28.2602 59.9296 28.3256 59.9333 28.3917L60 28.4665ZM50.3704 27.7189H57.4741L50.3704 20.5493V27.7189ZM41.7481 61.3612C40.3768 60.2508 39.4956 58.6386 39.2963 56.8756H21.5185C21.697 58.1239 22.3162 59.2651 23.2621 60.0893C24.208 60.9135 25.417 61.3652 26.6667 61.3612H41.7481ZM51.1111 35.195H42.2222C42.0258 35.195 41.8374 35.1162 41.6984 34.976C41.5595 34.8358 41.4815 34.6456 41.4815 34.4474V25.4761H27.4074V55.3804H40C40.1965 55.3804 40.3849 55.4591 40.5238 55.5993C40.6627 55.7395 40.7407 55.9297 40.7407 56.128C40.7407 57.5159 41.287 58.847 42.2594 59.8284C43.2319 60.8099 44.5507 61.3612 45.9259 61.3612C47.3011 61.3612 48.62 60.8099 49.5924 59.8284C50.5648 58.847 51.1111 57.5159 51.1111 56.128V35.195ZM50.0667 33.6998L42.963 26.5302V33.6998H50.0667ZM58.5185 49.3995V29.2141H49.6296C49.4332 29.2141 49.2448 29.1353 49.1058 28.9951C48.9669 28.8549 48.8889 28.6648 48.8889 28.4665V19.4952H34.8148V23.9809H42.2222C42.4058 23.9813 42.5827 24.0506 42.7185 24.1752L52.3481 33.8941C52.4072 33.9576 52.4548 34.031 52.4889 34.1109V34.1782C52.5097 34.2411 52.5222 34.3064 52.5259 34.3726C52.5259 34.3726 52.5259 34.3726 52.5259 34.4175V49.3995H58.5185ZM34.2889 36.907L31.8519 39.3741L30.8963 38.4097C30.7546 38.2872 30.5723 38.2232 30.3859 38.2305C30.1995 38.2377 30.0226 38.3157 29.8907 38.4489C29.7588 38.582 29.6815 38.7605 29.6743 38.9487C29.6671 39.1368 29.7305 39.3208 29.8519 39.4638L31.3333 40.959C31.4721 41.0983 31.6599 41.1764 31.8556 41.1764C32.0512 41.1764 32.239 41.0983 32.3778 40.959L35.3407 37.9686C35.4621 37.8256 35.5255 37.6416 35.5183 37.4535C35.5111 37.2653 35.4338 37.0868 35.3019 36.9537C35.17 36.8205 34.9931 36.7425 34.8067 36.7353C34.6203 36.728 34.438 36.792 34.2963 36.9145L34.2889 36.907ZM34.2889 42.8879L31.8519 45.355L30.8963 44.3905C30.7546 44.2681 30.5723 44.2041 30.3859 44.2113C30.1995 44.2186 30.0226 44.2966 29.8907 44.4297C29.7588 44.5629 29.6815 44.7414 29.6743 44.9295C29.6671 45.1177 29.7305 45.3016 29.8519 45.4447L31.3333 46.9399C31.4721 47.0791 31.6599 47.1573 31.8556 47.1573C32.0512 47.1573 32.239 47.0791 32.3778 46.9399L35.3407 43.9495C35.4621 43.8064 35.5255 43.6225 35.5183 43.4343C35.5111 43.2462 35.4338 43.0677 35.3019 42.9345C35.17 42.8014 34.9931 42.7234 34.8067 42.7161C34.6203 42.7088 34.438 42.7729 34.2963 42.8953L34.2889 42.8879ZM34.2889 48.8687L31.8519 51.3358L30.8963 50.3714C30.7546 50.2489 30.5723 50.1849 30.3859 50.1922C30.1995 50.1995 30.0226 50.2775 29.8907 50.4106C29.7588 50.5438 29.6815 50.7222 29.6743 50.9104C29.6671 51.0985 29.7305 51.2825 29.8519 51.4255L31.3333 52.9207C31.4721 53.06 31.6599 53.1381 31.8556 53.1381C32.0512 53.1381 32.239 53.06 32.3778 52.9207L35.3407 49.9303C35.4621 49.7873 35.5255 49.6033 35.5183 49.4152C35.5111 49.227 35.4338 49.0485 35.3019 48.9154C35.17 48.7822 34.9931 48.7042 34.8067 48.697C34.6203 48.6897 34.438 48.7537 34.2963 48.8762L34.2889 48.8687Z" fill="#3B3786"/>
<path d="M48.1481 44.9139C48.1481 45.1121 48.0701 45.3023 47.9312 45.4425C47.7923 45.5827 47.6039 45.6615 47.4074 45.6615H37.7778C37.5813 45.6615 37.3929 45.5827 37.254 45.4425C37.1151 45.3023 37.037 45.1121 37.037 44.9139C37.037 44.7156 37.1151 44.5254 37.254 44.3852C37.3929 44.245 37.5813 44.1663 37.7778 44.1663H47.4074C47.6039 44.1663 47.7923 44.245 47.9312 44.3852C48.0701 44.5254 48.1481 44.7156 48.1481 44.9139ZM47.4074 50.1471H37.7778C37.5813 50.1471 37.3929 50.2259 37.254 50.3661C37.1151 50.5063 37.037 50.6964 37.037 50.8947C37.037 51.093 37.1151 51.2832 37.254 51.4234C37.3929 51.5636 37.5813 51.6423 37.7778 51.6423H47.4074C47.6039 51.6423 47.7923 51.5636 47.9312 51.4234C48.0701 51.2832 48.1481 51.093 48.1481 50.8947C48.1481 50.6964 48.0701 50.5063 47.9312 50.3661C47.7923 50.2259 47.6039 50.1471 47.4074 50.1471ZM47.4074 38.1854H37.7778C37.5813 38.1854 37.3929 38.2642 37.254 38.4044C37.1151 38.5446 37.037 38.7347 37.037 38.933C37.037 39.1313 37.1151 39.3214 37.254 39.4616C37.3929 39.6019 37.5813 39.6806 37.7778 39.6806H47.4074C47.6039 39.6806 47.7923 39.6019 47.9312 39.4616C48.0701 39.3214 48.1481 39.1313 48.1481 38.933C48.1481 38.7347 48.0701 38.5446 47.9312 38.4044C47.7923 38.2642 47.6039 38.1854 47.4074 38.1854ZM60 28.4665V50.1471C60 50.3454 59.922 50.5356 59.783 50.6758C59.6441 50.816 59.4557 50.8947 59.2593 50.8947H52.5926V56.128C52.5926 57.9125 51.8902 59.6239 50.64 60.8857C49.3897 62.1476 47.694 62.8564 45.9259 62.8564H26.6667C24.8986 62.8564 23.2029 62.1476 21.9526 60.8857C20.7024 59.6239 20 57.9125 20 56.128C20 55.9297 20.078 55.7395 20.217 55.5993C20.3559 55.4591 20.5443 55.3804 20.7407 55.3804H25.9259V24.7285C25.9259 24.5302 26.004 24.34 26.1429 24.1998C26.2818 24.0596 26.4702 23.9809 26.6667 23.9809H33.3333V18.7476C33.3333 18.5493 33.4114 18.3592 33.5503 18.219C33.6892 18.0788 33.8776 18 34.0741 18H49.6296C49.8132 18.0005 49.9901 18.0698 50.1259 18.1944L59.7556 27.9133C59.8146 27.9767 59.8622 28.0501 59.8963 28.1301V28.1974C59.9171 28.2602 59.9296 28.3256 59.9333 28.3917L60 28.4665ZM50.3704 27.7189H57.4741L50.3704 20.5493V27.7189ZM41.7481 61.3612C40.3768 60.2508 39.4956 58.6386 39.2963 56.8756H21.5185C21.697 58.1239 22.3162 59.2651 23.2621 60.0893C24.208 60.9135 25.417 61.3652 26.6667 61.3612H41.7481ZM51.1111 35.195H42.2222C42.0258 35.195 41.8374 35.1162 41.6984 34.976C41.5595 34.8358 41.4815 34.6456 41.4815 34.4474V25.4761H27.4074V55.3804H40C40.1965 55.3804 40.3849 55.4591 40.5238 55.5993C40.6627 55.7395 40.7407 55.9297 40.7407 56.128C40.7407 57.5159 41.287 58.847 42.2594 59.8284C43.2319 60.8099 44.5507 61.3612 45.9259 61.3612C47.3011 61.3612 48.62 60.8099 49.5924 59.8284C50.5648 58.847 51.1111 57.5159 51.1111 56.128V35.195ZM50.0667 33.6998L42.963 26.5302V33.6998H50.0667ZM58.5185 49.3995V29.2141H49.6296C49.4332 29.2141 49.2448 29.1353 49.1058 28.9951C48.9669 28.8549 48.8889 28.6648 48.8889 28.4665V19.4952H34.8148V23.9809H42.2222C42.4058 23.9813 42.5827 24.0506 42.7185 24.1752L52.3481 33.8941C52.4072 33.9576 52.4548 34.031 52.4889 34.1109V34.1782C52.5097 34.2411 52.5222 34.3064 52.5259 34.3726C52.5259 34.3726 52.5259 34.3726 52.5259 34.4175V49.3995H58.5185ZM34.2889 36.907L31.8519 39.3741L30.8963 38.4097C30.7546 38.2872 30.5723 38.2232 30.3859 38.2305C30.1995 38.2377 30.0226 38.3157 29.8907 38.4489C29.7588 38.582 29.6815 38.7605 29.6743 38.9487C29.6671 39.1368 29.7305 39.3208 29.8519 39.4638L31.3333 40.959C31.4721 41.0983 31.6599 41.1764 31.8556 41.1764C32.0512 41.1764 32.239 41.0983 32.3778 40.959L35.3407 37.9686C35.4621 37.8256 35.5255 37.6416 35.5183 37.4535C35.5111 37.2653 35.4338 37.0868 35.3019 36.9537C35.17 36.8205 34.9931 36.7425 34.8067 36.7353C34.6203 36.728 34.438 36.792 34.2963 36.9145L34.2889 36.907ZM34.2889 42.8879L31.8519 45.355L30.8963 44.3905C30.7546 44.2681 30.5723 44.2041 30.3859 44.2113C30.1995 44.2186 30.0226 44.2966 29.8907 44.4297C29.7588 44.5629 29.6815 44.7414 29.6743 44.9295C29.6671 45.1177 29.7305 45.3016 29.8519 45.4447L31.3333 46.9399C31.4721 47.0791 31.6599 47.1573 31.8556 47.1573C32.0512 47.1573 32.239 47.0791 32.3778 46.9399L35.3407 43.9495C35.4621 43.8064 35.5255 43.6225 35.5183 43.4343C35.5111 43.2462 35.4338 43.0677 35.3019 42.9345C35.17 42.8014 34.9931 42.7234 34.8067 42.7161C34.6203 42.7088 34.438 42.7729 34.2963 42.8953L34.2889 42.8879ZM34.2889 48.8687L31.8519 51.3358L30.8963 50.3714C30.7546 50.2489 30.5723 50.1849 30.3859 50.1922C30.1995 50.1995 30.0226 50.2775 29.8907 50.4106C29.7588 50.5438 29.6815 50.7222 29.6743 50.9104C29.6671 51.0985 29.7305 51.2825 29.8519 51.4255L31.3333 52.9207C31.4721 53.06 31.6599 53.1381 31.8556 53.1381C32.0512 53.1381 32.239 53.06 32.3778 52.9207L35.3407 49.9303C35.4621 49.7873 35.5255 49.6033 35.5183 49.4152C35.5111 49.227 35.4338 49.0485 35.3019 48.9154C35.17 48.7822 34.9931 48.7042 34.8067 48.697C34.6203 48.6897 34.438 48.7537 34.2963 48.8762L34.2889 48.8687Z" stroke="#84C23E" stroke-width="0.6" mask="url(#path-2-outside-1)"/>
</svg>
